<svg xmlns="http://www.w3.org/2000/svg" xmlns:xlink="http://www.w3.org/1999/xlink" width="50" zoomAndPan="magnify" viewBox="0 0 37.5 37.499999" height="50" preserveAspectRatio="xMidYMid meet" version="1.0"><defs><clipPath id="cf5ae0bba3"><path d="M 1.273438 1.273438 L 36.226562 1.273438 L 36.226562 36.226562 L 1.273438 36.226562 Z M 1.273438 1.273438 " clip-rule="nonzero"/></clipPath><clipPath id="5cd759977f"><path d="M 18.75 1.273438 C 9.097656 1.273438 1.273438 9.097656 1.273438 18.75 C 1.273438 28.402344 9.097656 36.226562 18.75 36.226562 C 28.402344 36.226562 36.226562 28.402344 36.226562 18.75 C 36.226562 9.097656 28.402344 1.273438 18.75 1.273438 Z M 18.75 1.273438 " clip-rule="nonzero"/></clipPath><clipPath id="7ef5839fba"><path d="M 2.699219 2.699219 L 34.949219 2.699219 L 34.949219 34.949219 L 2.699219 34.949219 Z M 2.699219 2.699219 " clip-rule="nonzero"/></clipPath><clipPath id="117e908948"><path d="M 18.824219 2.699219 C 9.917969 2.699219 2.699219 9.917969 2.699219 18.824219 C 2.699219 27.730469 9.917969 34.949219 18.824219 34.949219 C 27.730469 34.949219 34.949219 27.730469 34.949219 18.824219 C 34.949219 9.917969 27.730469 2.699219 18.824219 2.699219 Z M 18.824219 2.699219 " clip-rule="nonzero"/></clipPath><clipPath id="d8e51abbb7"><path d="M 7.574219 11.851562 L 30.074219 11.851562 L 30.074219 25.648438 L 7.574219 25.648438 Z M 7.574219 11.851562 " clip-rule="nonzero"/></clipPath><clipPath id="ac1ef97f5a"><path d="M 9.074219 11.851562 L 28.574219 11.851562 C 28.972656 11.851562 29.355469 12.007812 29.636719 12.289062 C 29.917969 12.570312 30.074219 12.953125 30.074219 13.351562 L 30.074219 24.148438 C 30.074219 24.546875 29.917969 24.929688 29.636719 25.210938 C 29.355469 25.492188 28.972656 25.648438 28.574219 25.648438 L 9.074219 25.648438 C 8.675781 25.648438 8.296875 25.492188 8.015625 25.210938 C 7.734375 24.929688 7.574219 24.546875 7.574219 24.148438 L 7.574219 13.351562 C 7.574219 12.953125 7.734375 12.570312 8.015625 12.289062 C 8.296875 12.007812 8.675781 11.851562 9.074219 11.851562 Z M 9.074219 11.851562 " clip-rule="nonzero"/></clipPath><clipPath id="3f2e471008"><path d="M 17 15 L 24 15 L 24 23 L 17 23 Z M 17 15 " clip-rule="nonzero"/></clipPath><clipPath id="32b6e3c9b7"><path d="M 17.371094 15.789062 L 23.015625 19.089844 L 20.125 24.027344 L 14.484375 20.726562 Z M 17.371094 15.789062 " clip-rule="nonzero"/></clipPath><clipPath id="9cc4cd50ef"><path d="M 17.304688 22.375 L 23.015625 19.089844 L 17.371094 15.789062 Z M 17.304688 22.375 " clip-rule="nonzero"/></clipPath></defs><g clip-path="url(#cf5ae0bba3)"><g clip-path="url(#5cd759977f)"><path fill="#ffffff" d="M 1.273438 1.273438 L 36.226562 1.273438 L 36.226562 36.226562 L 1.273438 36.226562 Z M 1.273438 1.273438 " fill-opacity="1" fill-rule="nonzero"/></g></g><g clip-path="url(#7ef5839fba)"><g clip-path="url(#117e908948)"><path fill="#5270fe" d="M 2.699219 2.699219 L 34.949219 2.699219 L 34.949219 34.949219 L 2.699219 34.949219 Z M 2.699219 2.699219 " fill-opacity="1" fill-rule="nonzero"/></g></g><g clip-path="url(#d8e51abbb7)"><g clip-path="url(#ac1ef97f5a)"><path fill="#ffffff" d="M 7.574219 11.851562 L 30.074219 11.851562 L 30.074219 25.648438 L 7.574219 25.648438 Z M 7.574219 11.851562 " fill-opacity="1" fill-rule="nonzero"/></g></g><g clip-path="url(#3f2e471008)"><g clip-path="url(#32b6e3c9b7)"><g clip-path="url(#9cc4cd50ef)"><path fill="#5270fe" d="M 17.371094 15.789062 L 23.015625 19.089844 L 20.125 24.027344 L 14.484375 20.726562 Z M 17.371094 15.789062 " fill-opacity="1" fill-rule="nonzero"/></g></g></g></svg>